<svg width="82" height="89" fill="none" xmlns="http://www.w3.org/2000/svg"><g filter="url(#filter0_d)"><path fill-rule="evenodd" clip-rule="evenodd" d="M41 70c12.15 0 22-9.85 22-22s-9.85-22-22-22-22 9.85-22 22 9.85 22 22 22z" fill="#000" fill-opacity=".01"/></g><g filter="url(#filter1_d)"><path fill-rule="evenodd" clip-rule="evenodd" d="M41 70c16.569 0 30-13.431 30-30 0-16.569-13.431-30-30-30-16.569 0-30 13.431-30 30 0 16.569 13.431 30 30 30z" fill="#2196F3"/><path d="M69 40c0 15.464-12.536 28-28 28S13 55.464 13 40s12.536-28 28-28 28 12.536 28 28z" stroke="#42A5F5" stroke-width="4"/></g><mask id="a" maskUnits="userSpaceOnUse" x="11" y="10" width="60" height="60"><path fill-rule="evenodd" clip-rule="evenodd" d="M41 70c16.569 0 30-13.431 30-30 0-16.569-13.431-30-30-30-16.569 0-30 13.431-30 30 0 16.569 13.431 30 30 30z" fill="#fff"/></mask><g mask="url(#a)" stroke="#42A5F5" stroke-width="4"><path d="M13.714 32.875h53.822M13.714 48.625h53.822" stroke-linecap="square"/><path d="M40.25 14.5s-9.962 11.578-9.747 26.25C30.72 55.422 40.25 65.5 40.25 65.5M41 14.5s9.962 11.578 9.746 26.25C50.531 55.422 41 65.5 41 65.5" stroke-linecap="round" stroke-linejoin="round"/></g><path fill-rule="evenodd" clip-rule="evenodd" d="M51.195 29.028c.2-.116.42-.187.65-.202 1.017-.064 3.953-.148 4.59.955.636 1.103-.905 3.603-1.469 4.45-.128.192-.3.347-.5.463l-6.076 3.508.844 17.1a.65.65 0 01-.315.59l-1.249.747a.65.65 0 01-.546.057l-.946-.327a.649.649 0 01-.367-.318l-6.458-12.632-6.369 3.677-.687 4.672a.65.65 0 01-.654.555l-.498-.01a.65.65 0 01-.581-.385l-1.79-4.016c-1.23.04-2.385-.081-2.695-.618-.31-.536.164-1.592.814-2.633l-2.564-3.53a.65.65 0 01-.042-.696l.24-.436a.65.65 0 01.808-.29l4.362 1.73 6.38-3.684-7.658-11.828a.65.65 0 01-.092-.477l.19-.983a.649.649 0 01.322-.444l1.273-.708a.649.649 0 01.667.022l14.298 9.223 6.118-3.532z" fill="#fff"/><mask id="b" maskUnits="userSpaceOnUse" x="24" y="23" width="33" height="34"><path fill-rule="evenodd" clip-rule="evenodd" d="M51.195 29.028c.2-.116.42-.187.65-.202 1.017-.064 3.953-.148 4.59.955.636 1.103-.905 3.603-1.469 4.45-.128.192-.3.347-.5.463l-6.076 3.508.844 17.1a.65.65 0 01-.315.59l-1.249.747a.65.65 0 01-.546.057l-.946-.327a.649.649 0 01-.367-.318l-6.458-12.632-6.369 3.677-.687 4.672a.65.65 0 01-.654.555l-.498-.01a.65.65 0 01-.581-.385l-1.79-4.016c-1.23.04-2.385-.081-2.695-.618-.31-.536.164-1.592.814-2.633l-2.564-3.53a.65.65 0 01-.042-.696l.24-.436a.65.65 0 01.808-.29l4.362 1.73 6.38-3.684-7.658-11.828a.65.65 0 01-.092-.477l.19-.983a.649.649 0 01.322-.444l1.273-.708a.649.649 0 01.667.022l14.298 9.223 6.118-3.532z" fill="#fff"/></mask><g mask="url(#b)"><path fill="#EBECF2" d="M45.536 30.784l.654 1.134-10.745 6.204-.655-1.134z"/><path fill-rule="evenodd" clip-rule="evenodd" d="M48.92 55.891a.65.65 0 00.314-.589l-.871-17.66-9.237 5.333 6.685 13.076c.077.15.208.263.367.318l.946.327a.649.649 0 00.546-.057l1.25-.748z" fill="#DEE1E3"/><path opacity=".4" fill-rule="evenodd" clip-rule="evenodd" d="M28.837 47.801l-.09.052 1.817 4.075a.65.65 0 00.58.385l.499.01a.65.65 0 00.654-.555l.726-4.935-.463.268a1.63 1.63 0 01-.459.18c-.55.123-1.946.414-3.264.52z" fill="#DEE1E3"/><path fill-rule="evenodd" clip-rule="evenodd" d="M39.248 43.213l9.13-5.27.099 2.01-7.521 6.6-1.708-3.34z" fill="#C5C6CC"/><path fill-rule="evenodd" clip-rule="evenodd" d="M57.482 32.952l-29.79 17.2s-.88-1.588-1.613-2.858a.873.873 0 01-.025-.047c1.352.098 4.073-.012 6.712-1.536l20.625-11.907c2.291-1.323 2.852-3.037 3.162-3.773.478 1.285.93 2.921.93 2.921z" fill="#DEE1E3"/></g><defs><filter id="filter0_d" x="8" y="23" width="66" height="66" filterUnits="userSpaceOnUse" color-interpolation-filters="sRGB"><feFlood flood-opacity="0" result="BackgroundImageFix"/><feColorMatrix in="SourceAlpha" values="0 0 0 0 0 0 0 0 0 0 0 0 0 0 0 0 0 0 127 0"/><feOffset dy="8"/><feGaussianBlur stdDeviation="5.5"/><feColorMatrix values="0 0 0 0 0.215686 0 0 0 0 0.407843 0 0 0 0 0.556863 0 0 0 0.25 0"/><feBlend in2="BackgroundImageFix" result="effect1_dropShadow"/><feBlend in="SourceGraphic" in2="effect1_dropShadow" result="shape"/></filter><filter id="filter1_d" x="0" y="0" width="82" height="82" filterUnits="userSpaceOnUse" color-interpolation-filters="sRGB"><feFlood flood-opacity="0" result="BackgroundImageFix"/><feColorMatrix in="SourceAlpha" values="0 0 0 0 0 0 0 0 0 0 0 0 0 0 0 0 0 0 127 0"/><feOffset dy="1"/><feGaussianBlur stdDeviation="5.5"/><feColorMatrix values="0 0 0 0 0.215686 0 0 0 0 0.407843 0 0 0 0 0.556863 0 0 0 0.3 0"/><feBlend in2="BackgroundImageFix" result="effect1_dropShadow"/><feBlend in="SourceGraphic" in2="effect1_dropShadow" result="shape"/></filter></defs></svg>